<svg xmlns="http://www.w3.org/2000/svg" viewBox="0 0 260 100" width="260" height="100" role="img" aria-label="PKA — Pierre Koch Architecte (inversé)">
  <title>PKA Logo v2 — Inverse — K adouci</title>
  <desc>Logo PKA version inversée pour fond sombre, K aux terminaisons arrondies avec touche orange</desc>
  <rect x="10" y="10" width="6" height="80" fill="#E8772A"/>

  <!-- P : barre + boucle (inchangé) -->
  <g fill="none" stroke="#f4f1ec" stroke-width="5" stroke-linecap="square">
    <line x1="46" y1="10" x2="46" y2="90"/>
    <line x1="46" y1="10" x2="80" y2="10"/>
    <path d="M 80 10 Q 100 10 100 30"/>
    <path d="M 100 30 Q 100 50 80 50"/>
    <line x1="46" y1="50" x2="80" y2="50"/>
  </g>

  <!-- K v2 : terminaisons arrondies + jonction adoucie -->
  <g fill="none" stroke="#f4f1ec" stroke-width="5" stroke-linecap="round" stroke-linejoin="round">
    <line x1="120" y1="10" x2="120" y2="90"/>
    <path d="M 123 50 L 160 10"/>
    <path d="M 123 50 L 160 90"/>
    <path d="M 120 50 Q 121.5 50 123 50"/>
  </g>

  <!-- Touche orange intégrée dans le K -->
  <line x1="135" y1="60" x2="148" y2="76" stroke="#E8772A" stroke-width="5" stroke-linecap="round"/>

  <!-- A : compas (inchangé) -->
  <polyline points="180,90 215,10 250,90" fill="none" stroke="#f4f1ec" stroke-width="5" stroke-linecap="square" stroke-linejoin="round"/>
  <line x1="222" y1="55" x2="238" y2="75" stroke="#E8772A" stroke-width="5" stroke-linecap="square"/>
</svg>
