<svg xmlns="http://www.w3.org/2000/svg" viewBox="0 0 260 100" width="260" height="100" role="img" aria-label="PKA — Pierre Koch Architecte">
  <title>PKA Logo v2 — K adouci</title>
  <desc>Logo PKA — lettres géométriques avec barre verticale orange, K aux terminaisons arrondies avec touche orange, et coche orange dans le A</desc>
  <!-- Barre verticale orange (ancrage gauche) -->
  <rect x="10" y="10" width="6" height="80" fill="#E8772A"/>

  <!-- P : barre + boucle (inchangé) -->
  <g fill="none" stroke="#1a1a18" stroke-width="5" stroke-linecap="square">
    <line x1="46" y1="10" x2="46" y2="90"/>
    <line x1="46" y1="10" x2="80" y2="10"/>
    <path d="M 80 10 Q 100 10 100 30"/>
    <path d="M 100 30 Q 100 50 80 50"/>
    <line x1="46" y1="50" x2="80" y2="50"/>
  </g>

  <!-- K v2 : terminaisons arrondies + jonction adoucie via path unique -->
  <g fill="none" stroke="#1a1a18" stroke-width="5" stroke-linecap="round" stroke-linejoin="round">
    <line x1="120" y1="10" x2="120" y2="90"/>
    <!-- diagonale haute : part légèrement décalée du centre (123 au lieu de 120) pour adoucir la jonction -->
    <path d="M 123 50 L 160 10"/>
    <!-- diagonale basse : idem -->
    <path d="M 123 50 L 160 90"/>
    <!-- petit raccord arrondi entre la barre verticale et les diagonales -->
    <path d="M 120 50 Q 121.5 50 123 50"/>
  </g>

  <!-- Touche orange intégrée dans le K (équilibre avec A et barre gauche) -->
  <line x1="135" y1="60" x2="148" y2="76" stroke="#E8772A" stroke-width="5" stroke-linecap="round"/>

  <!-- A : compas (inchangé) -->
  <polyline points="180,90 215,10 250,90" fill="none" stroke="#1a1a18" stroke-width="5" stroke-linecap="square" stroke-linejoin="round"/>
  <line x1="222" y1="55" x2="238" y2="75" stroke="#E8772A" stroke-width="5" stroke-linecap="square"/>
</svg>
