<svg xmlns="http://www.w3.org/2000/svg" viewBox="0 0 560 100" width="560" height="100" role="img" aria-label="PKA — Pierre Koch Architecte · Numérisation pour l'architecture">
  <title>PKA Signature Horizontale</title>
  <desc>Logo PKA avec wordmark Pierre Koch Architecte</desc>
  <rect x="10" y="10" width="6" height="80" fill="#E8772A"/>
  <g fill="none" stroke="#1a1a18" stroke-width="5" stroke-linecap="square">
    <line x1="46" y1="10" x2="46" y2="90"/>
    <line x1="46" y1="10" x2="80" y2="10"/>
    <path d="M 80 10 Q 100 10 100 30"/>
    <path d="M 100 30 Q 100 50 80 50"/>
    <line x1="46" y1="50" x2="80" y2="50"/>
    <line x1="120" y1="10" x2="120" y2="90"/>
    <line x1="120" y1="50" x2="160" y2="10"/>
    <line x1="120" y1="50" x2="160" y2="90"/>
  </g>
  <polyline points="180,90 215,10 250,90" fill="none" stroke="#1a1a18" stroke-width="5" stroke-linecap="square" stroke-linejoin="round"/>
  <line x1="222" y1="55" x2="238" y2="75" stroke="#E8772A" stroke-width="5" stroke-linecap="square"/>
  <line x1="275" y1="25" x2="275" y2="75" stroke="#c8c3ba" stroke-width="1"/>
  <text x="295" y="50" font-family="Georgia, 'Times New Roman', serif" font-size="22" font-weight="400" fill="#1a1a18" letter-spacing="0.5">Pierre Koch Architecte</text>
  <text x="295" y="72" font-family="'Courier New', monospace" font-size="10" fill="#8a8680" letter-spacing="2">NUMÉRISATION POUR L'ARCHITECTURE</text>
</svg>
